<svg xmlns="http://www.w3.org/2000/svg" width="900" height="500" viewBox="0 0 900 500"><style>text{font-family:Arial,sans-serif;fill:#182230}.title{font-size:25px;font-weight:700}.node{fill:#f7fafc;stroke:#2f5d7c;stroke-width:2}.label{font-size:16px;font-weight:700}.small{font-size:14px;fill:#52606d}</style><defs><marker id="a" markerWidth="10" markerHeight="10" refX="8" refY="3" orient="auto"><path d="M0,0 L0,6 L9,3 z" fill="#2f5d7c"/></marker></defs><rect width="900" height="500" fill="#fff"/><text x="450" y="38" text-anchor="middle" class="title">Developmental Learning Loop</text><g class="label"><rect x="365" y="70" width="170" height="54" rx="8" class="node"/><text x="450" y="103" text-anchor="middle">External World</text><rect x="365" y="155" width="170" height="54" rx="8" class="node"/><text x="450" y="188" text-anchor="middle">Body / Perception</text><rect x="365" y="240" width="170" height="54" rx="8" class="node"/><text x="450" y="273" text-anchor="middle">Memory / Learning</text><rect x="365" y="325" width="170" height="54" rx="8" class="node"/><text x="450" y="358" text-anchor="middle">Models / Executive</text><rect x="365" y="410" width="170" height="54" rx="8" class="node"/><text x="450" y="443" text-anchor="middle">Action / Consequence</text></g><path d="M450 124v31M450 209v31M450 294v31M450 379v31" stroke="#2f5d7c" stroke-width="3" marker-end="url(#a)"/><path d="M535 437c190 0 190-335 0-335" fill="none" stroke="#2f5d7c" stroke-width="3" marker-end="url(#a)"/><text x="715" y="255" text-anchor="middle" class="small">Experience changes the next cycle.</text></svg>
